# xmcd
#
# Track frame offsets:
#	150
#	12377
#	28412
#	39635
#	54480
#	66752
#	82000
#	91695
#	105332
#	124312
#	138255
#	153287
#
# Disc length: 2254 seconds
#
# Revision: 0
# Processed by: cddbd v1.4PL0 Copyright (c) Steve Scherf et al.
# Submitted via: audiograbber 1.81.01
#
DISCID=9808cc0c
DTITLE=Perry Como - I Grandi Successi Originali cd1
DYEAR=1900
DGENRE=pop
TTITLE0=Magic
TTITLE1=Something
TTITLE2=Catch a falling star
TTITLE3=It's impossible
TTITLE4=Papa loves mambo
TTITLE5=Fly me to the moon (In words)
TTITLE6=Caterina
TTITLE7=Mi casa, su casa
TTITLE8=Thè best of times
TTITLE9=what's new?
TTITLE10=I left my heart in san francisco
TTITLE11=Without a song
EXTD=
EXTT0=
EXTT1=
EXTT2=
EXTT3=
EXTT4=
EXTT5=
EXTT6=
EXTT7=
EXTT8=
EXTT9=
EXTT10=
EXTT11=
PLAYORDER=
